# MagicaVoxel @ Ephtracy

# group
o 

# material
mtllib bambooPanda-0.mtl
usemtl palette

# normals
vn -1 0 0
vn 1 0 0
vn 0 0 1
vn 0 0 -1
vn 0 -1 0
vn 0 1 0

# texcoords
vt 0.884766 0.5
vt 0.900391 0.5

# verts
v 2.7 0 0.1
v 2.7 0 -0.1
v 2.7 0.1 -2.98023e-08
v 2.7 0.1 -0.1
v 2.7 0.2 -2.98023e-08
v 2.7 0.2 -0.1
v 2.7 0.3 0.1
v 2.7 0.3 -2.98023e-08
v 2.7 0.4 0.1
v 2.7 0.4 -2.98023e-08
v 2.7 0.4 -0.2
v 2.7 0.4 -0.3
v 2.7 0.5 -2.98023e-08
v 2.7 0.5 -0.1
v 2.7 0.5 -0.2
v 2.7 0.5 -0.3
v 2.7 0.6 -0.1
v 2.7 0.6 -0.2
v 2.7 0.7 0.3
v 2.7 0.7 0.2
v 2.7 0.7 -2.98023e-08
v 2.7 0.7 -0.1
v 2.7 0.8 0.3
v 2.7 0.8 0.2
v 2.7 0.8 0.1
v 2.7 0.8 -2.98023e-08
v 2.7 0.9 0.2
v 2.7 0.9 0.1
v 2.7 0.9 -2.98023e-08
v 2.7 1 -0.2
v 2.7 1 -0.3
v 2.7 1.1 -2.98023e-08
v 2.7 1.1 -0.1
v 2.7 1.1 -0.2
v 2.7 1.1 -0.3
v 2.7 1.2 0.3
v 2.7 1.2 0.2
v 2.7 1.2 -2.98023e-08
v 2.7 1.2 -0.1
v 2.7 1.2 -0.2
v 2.7 1.3 0.3
v 2.7 1.3 0.2
v 2.7 1.3 0.1
v 2.7 1.3 -2.98023e-08
v 2.7 1.4 0.2
v 2.7 1.4 0.1
v 2.7 1.4 -2.98023e-08
v 2.7 1.4 -0.2
v 2.7 1.4 -0.3
v 2.7 1.5 -2.98023e-08
v 2.7 1.5 -0.1
v 2.7 1.5 -0.2
v 2.7 1.5 -0.3
v 2.7 1.6 -2.98023e-08
v 2.7 1.6 -0.1
v 2.7 1.6 -0.2
v 2.7 1.7 -0.2
v 2.7 1.7 -0.3
v 2.7 1.8 0.3
v 2.7 1.8 0.2
v 2.7 1.8 -2.98023e-08
v 2.7 1.8 -0.1
v 2.7 1.8 -0.2
v 2.7 1.8 -0.3
v 2.7 1.9 0.3
v 2.7 1.9 0.2
v 2.7 1.9 0.1
v 2.7 1.9 -2.98023e-08
v 2.7 1.9 -0.1
v 2.7 1.9 -0.2
v 2.7 2 0.2
v 2.7 2 0.1
v 2.7 2 -2.98023e-08
v 2.7 2.1 -0.2
v 2.7 2.1 -0.3
v 2.7 2.2 -2.98023e-08
v 2.7 2.2 -0.1
v 2.7 2.2 -0.2
v 2.7 2.2 -0.3
v 2.7 2.3 0.3
v 2.7 2.3 0.2
v 2.7 2.3 -0.1
v 2.7 2.3 -0.2
v 2.7 2.4 0.3
v 2.7 2.4 0.2
v 2.7 2.4 0.1
v 2.7 2.4 -2.98023e-08
v 2.7 2.4 -0.1
v 2.7 2.5 0.3
v 2.7 2.5 0.2
v 2.7 2.5 0.1
v 2.7 2.5 -2.98023e-08
v 2.7 2.6 0.3
v 2.7 2.6 0.2
v 2.7 2.6 0.1
v 2.7 2.6 -2.98023e-08
v 2.7 2.6 -0.2
v 2.7 2.6 -0.3
v 2.7 2.7 0.2
v 2.7 2.7 0.1
v 2.7 2.7 -2.98023e-08
v 2.7 2.7 -0.1
v 2.7 2.7 -0.2
v 2.7 2.7 -0.3
v 2.7 2.8 0.1
v 2.7 2.8 -2.98023e-08
v 2.7 2.8 -0.1
v 2.7 2.8 -0.2
v 2.7 2.9 0.1
v 2.7 2.9 -2.98023e-08
v 2.7 2.9 -0.1
v 2.8 0 0.1
v 2.8 0 -0.1
v 2.8 0.1 -2.98023e-08
v 2.8 0.1 -0.1
v 2.8 0.2 -2.98023e-08
v 2.8 0.2 -0.1
v 2.8 0.3 0.1
v 2.8 0.3 -2.98023e-08
v 2.8 0.4 0.1
v 2.8 0.4 -2.98023e-08
v 2.8 0.4 -0.2
v 2.8 0.4 -0.3
v 2.8 0.5 -2.98023e-08
v 2.8 0.5 -0.1
v 2.8 0.5 -0.2
v 2.8 0.5 -0.3
v 2.8 0.6 -0.1
v 2.8 0.6 -0.2
v 2.8 0.7 0.3
v 2.8 0.7 0.2
v 2.8 0.7 -2.98023e-08
v 2.8 0.7 -0.1
v 2.8 0.8 0.3
v 2.8 0.8 0.2
v 2.8 0.8 0.1
v 2.8 0.8 -2.98023e-08
v 2.8 0.9 0.2
v 2.8 0.9 0.1
v 2.8 0.9 -2.98023e-08
v 2.8 1 -0.2
v 2.8 1 -0.3
v 2.8 1.1 -2.98023e-08
v 2.8 1.1 -0.1
v 2.8 1.1 -0.2
v 2.8 1.1 -0.3
v 2.8 1.2 0.3
v 2.8 1.2 0.2
v 2.8 1.2 -2.98023e-08
v 2.8 1.2 -0.1
v 2.8 1.2 -0.2
v 2.8 1.3 0.3
v 2.8 1.3 0.2
v 2.8 1.3 0.1
v 2.8 1.3 -2.98023e-08
v 2.8 1.4 0.2
v 2.8 1.4 0.1
v 2.8 1.4 -2.98023e-08
v 2.8 1.4 -0.2
v 2.8 1.4 -0.3
v 2.8 1.5 -2.98023e-08
v 2.8 1.5 -0.1
v 2.8 1.5 -0.2
v 2.8 1.5 -0.3
v 2.8 1.6 -2.98023e-08
v 2.8 1.6 -0.1
v 2.8 1.6 -0.2
v 2.8 1.7 -0.2
v 2.8 1.7 -0.3
v 2.8 1.8 0.3
v 2.8 1.8 0.2
v 2.8 1.8 -2.98023e-08
v 2.8 1.8 -0.1
v 2.8 1.8 -0.2
v 2.8 1.8 -0.3
v 2.8 1.9 0.3
v 2.8 1.9 0.2
v 2.8 1.9 0.1
v 2.8 1.9 -2.98023e-08
v 2.8 1.9 -0.1
v 2.8 1.9 -0.2
v 2.8 2 0.2
v 2.8 2 0.1
v 2.8 2 -2.98023e-08
v 2.8 2.1 -0.2
v 2.8 2.1 -0.3
v 2.8 2.2 -2.98023e-08
v 2.8 2.2 -0.1
v 2.8 2.2 -0.2
v 2.8 2.2 -0.3
v 2.8 2.3 0.3
v 2.8 2.3 0.2
v 2.8 2.3 -0.1
v 2.8 2.3 -0.2
v 2.8 2.4 0.3
v 2.8 2.4 0.2
v 2.8 2.4 0.1
v 2.8 2.4 -2.98023e-08
v 2.8 2.4 -0.1
v 2.8 2.5 0.3
v 2.8 2.5 0.2
v 2.8 2.5 0.1
v 2.8 2.5 -2.98023e-08
v 2.8 2.6 0.3
v 2.8 2.6 0.2
v 2.8 2.6 0.1
v 2.8 2.6 -2.98023e-08
v 2.8 2.6 -0.2
v 2.8 2.6 -0.3
v 2.8 2.7 0.2
v 2.8 2.7 0.1
v 2.8 2.7 -2.98023e-08
v 2.8 2.7 -0.1
v 2.8 2.7 -0.2
v 2.8 2.7 -0.3
v 2.8 2.8 0.1
v 2.8 2.8 -2.98023e-08
v 2.8 2.8 -0.1
v 2.8 2.8 -0.2
v 2.8 2.9 0.1
v 2.8 2.9 -2.98023e-08
v 2.8 2.9 -0.1
v 2.7 0.7 0.3
v 2.7 0.8 0.3
v 2.7 1.2 0.3
v 2.7 1.3 0.3
v 2.7 1.8 0.3
v 2.7 1.9 0.3
v 2.7 2.3 0.3
v 2.7 2.4 0.3
v 2.7 2.5 0.3
v 2.7 2.6 0.3
v 2.8 0.7 0.3
v 2.8 0.8 0.3
v 2.8 1.2 0.3
v 2.8 1.3 0.3
v 2.8 1.8 0.3
v 2.8 1.9 0.3
v 2.8 2.3 0.3
v 2.8 2.4 0.3
v 2.8 2.5 0.3
v 2.8 2.6 0.3
v 2.7 0.8 0.2
v 2.7 0.9 0.2
v 2.7 1.3 0.2
v 2.7 1.4 0.2
v 2.7 1.9 0.2
v 2.7 2 0.2
v 2.7 2.4 0.2
v 2.7 2.5 0.2
v 2.7 2.6 0.2
v 2.7 2.7 0.2
v 2.8 0.8 0.2
v 2.8 0.9 0.2
v 2.8 1.3 0.2
v 2.8 1.4 0.2
v 2.8 1.9 0.2
v 2.8 2 0.2
v 2.8 2.4 0.2
v 2.8 2.5 0.2
v 2.8 2.6 0.2
v 2.8 2.7 0.2
v 2.7 0 0.1
v 2.7 0.3 0.1
v 2.7 0.4 0.1
v 2.7 0.8 0.1
v 2.7 0.9 0.1
v 2.7 1.3 0.1
v 2.7 1.4 0.1
v 2.7 1.9 0.1
v 2.7 2 0.1
v 2.7 2.4 0.1
v 2.7 2.5 0.1
v 2.7 2.6 0.1
v 2.7 2.7 0.1
v 2.7 2.8 0.1
v 2.7 2.9 0.1
v 2.8 0 0.1
v 2.8 0.3 0.1
v 2.8 0.4 0.1
v 2.8 0.8 0.1
v 2.8 0.9 0.1
v 2.8 1.3 0.1
v 2.8 1.4 0.1
v 2.8 1.9 0.1
v 2.8 2 0.1
v 2.8 2.4 0.1
v 2.8 2.5 0.1
v 2.8 2.6 0.1
v 2.8 2.7 0.1
v 2.8 2.8 0.1
v 2.8 2.9 0.1
v 2.7 0.4 -0.2
v 2.7 0.5 -0.2
v 2.7 1 -0.2
v 2.7 1.1 -0.2
v 2.7 1.4 -0.2
v 2.7 1.5 -0.2
v 2.7 1.7 -0.2
v 2.7 1.8 -0.2
v 2.7 2.1 -0.2
v 2.7 2.2 -0.2
v 2.7 2.6 -0.2
v 2.7 2.7 -0.2
v 2.8 0.4 -0.2
v 2.8 0.5 -0.2
v 2.8 1 -0.2
v 2.8 1.1 -0.2
v 2.8 1.4 -0.2
v 2.8 1.5 -0.2
v 2.8 1.7 -0.2
v 2.8 1.8 -0.2
v 2.8 2.1 -0.2
v 2.8 2.2 -0.2
v 2.8 2.6 -0.2
v 2.8 2.7 -0.2
v 2.7 0.7 0.2
v 2.7 0.8 0.2
v 2.7 1.2 0.2
v 2.7 1.3 0.2
v 2.7 1.8 0.2
v 2.7 1.9 0.2
v 2.7 2.3 0.2
v 2.7 2.4 0.2
v 2.7 2.5 0.2
v 2.7 2.6 0.2
v 2.8 0.7 0.2
v 2.8 0.8 0.2
v 2.8 1.2 0.2
v 2.8 1.3 0.2
v 2.8 1.8 0.2
v 2.8 1.9 0.2
v 2.8 2.3 0.2
v 2.8 2.4 0.2
v 2.8 2.5 0.2
v 2.8 2.6 0.2
v 2.7 0 -0.1
v 2.7 0.1 -0.1
v 2.7 0.2 -0.1
v 2.7 0.5 -0.1
v 2.7 0.6 -0.1
v 2.7 0.7 -0.1
v 2.7 1.1 -0.1
v 2.7 1.2 -0.1
v 2.7 1.5 -0.1
v 2.7 1.6 -0.1
v 2.7 1.8 -0.1
v 2.7 1.9 -0.1
v 2.7 2.2 -0.1
v 2.7 2.3 -0.1
v 2.7 2.4 -0.1
v 2.7 2.7 -0.1
v 2.7 2.8 -0.1
v 2.7 2.9 -0.1
v 2.8 0 -0.1
v 2.8 0.1 -0.1
v 2.8 0.2 -0.1
v 2.8 0.5 -0.1
v 2.8 0.6 -0.1
v 2.8 0.7 -0.1
v 2.8 1.1 -0.1
v 2.8 1.2 -0.1
v 2.8 1.5 -0.1
v 2.8 1.6 -0.1
v 2.8 1.8 -0.1
v 2.8 1.9 -0.1
v 2.8 2.2 -0.1
v 2.8 2.3 -0.1
v 2.8 2.4 -0.1
v 2.8 2.7 -0.1
v 2.8 2.8 -0.1
v 2.8 2.9 -0.1
v 2.7 0.5 -0.2
v 2.7 0.6 -0.2
v 2.7 1.1 -0.2
v 2.7 1.2 -0.2
v 2.7 1.5 -0.2
v 2.7 1.6 -0.2
v 2.7 1.8 -0.2
v 2.7 1.9 -0.2
v 2.7 2.2 -0.2
v 2.7 2.3 -0.2
v 2.7 2.7 -0.2
v 2.7 2.8 -0.2
v 2.8 0.5 -0.2
v 2.8 0.6 -0.2
v 2.8 1.1 -0.2
v 2.8 1.2 -0.2
v 2.8 1.5 -0.2
v 2.8 1.6 -0.2
v 2.8 1.8 -0.2
v 2.8 1.9 -0.2
v 2.8 2.2 -0.2
v 2.8 2.3 -0.2
v 2.8 2.7 -0.2
v 2.8 2.8 -0.2
v 2.7 0.4 -0.3
v 2.7 0.5 -0.3
v 2.7 1 -0.3
v 2.7 1.1 -0.3
v 2.7 1.4 -0.3
v 2.7 1.5 -0.3
v 2.7 1.7 -0.3
v 2.7 1.8 -0.3
v 2.7 2.1 -0.3
v 2.7 2.2 -0.3
v 2.7 2.6 -0.3
v 2.7 2.7 -0.3
v 2.8 0.4 -0.3
v 2.8 0.5 -0.3
v 2.8 1 -0.3
v 2.8 1.1 -0.3
v 2.8 1.4 -0.3
v 2.8 1.5 -0.3
v 2.8 1.7 -0.3
v 2.8 1.8 -0.3
v 2.8 2.1 -0.3
v 2.8 2.2 -0.3
v 2.8 2.6 -0.3
v 2.8 2.7 -0.3
v 2.7 0 0.1
v 2.8 0 0.1
v 2.7 0 -0.1
v 2.8 0 -0.1
v 2.7 0.4 -0.2
v 2.8 0.4 -0.2
v 2.7 0.4 -0.3
v 2.8 0.4 -0.3
v 2.7 0.5 -0.1
v 2.8 0.5 -0.1
v 2.7 0.5 -0.2
v 2.8 0.5 -0.2
v 2.7 0.7 0.3
v 2.8 0.7 0.3
v 2.7 0.7 0.2
v 2.8 0.7 0.2
v 2.7 0.8 0.2
v 2.8 0.8 0.2
v 2.7 0.8 0.1
v 2.8 0.8 0.1
v 2.7 1 -0.2
v 2.8 1 -0.2
v 2.7 1 -0.3
v 2.8 1 -0.3
v 2.7 1.1 -0.1
v 2.8 1.1 -0.1
v 2.7 1.1 -0.2
v 2.8 1.1 -0.2
v 2.7 1.2 0.3
v 2.8 1.2 0.3
v 2.7 1.2 0.2
v 2.8 1.2 0.2
v 2.7 1.3 0.2
v 2.8 1.3 0.2
v 2.7 1.3 0.1
v 2.8 1.3 0.1
v 2.7 1.4 -0.2
v 2.8 1.4 -0.2
v 2.7 1.4 -0.3
v 2.8 1.4 -0.3
v 2.7 1.5 -0.1
v 2.8 1.5 -0.1
v 2.7 1.5 -0.2
v 2.8 1.5 -0.2
v 2.7 1.7 -0.2
v 2.8 1.7 -0.2
v 2.7 1.7 -0.3
v 2.8 1.7 -0.3
v 2.7 1.8 0.3
v 2.8 1.8 0.3
v 2.7 1.8 0.2
v 2.8 1.8 0.2
v 2.7 1.8 -0.1
v 2.8 1.8 -0.1
v 2.7 1.8 -0.2
v 2.8 1.8 -0.2
v 2.7 1.9 0.2
v 2.8 1.9 0.2
v 2.7 1.9 0.1
v 2.8 1.9 0.1
v 2.7 2.1 -0.2
v 2.8 2.1 -0.2
v 2.7 2.1 -0.3
v 2.8 2.1 -0.3
v 2.7 2.2 -0.1
v 2.8 2.2 -0.1
v 2.7 2.2 -0.2
v 2.8 2.2 -0.2
v 2.7 2.3 0.3
v 2.8 2.3 0.3
v 2.7 2.3 0.2
v 2.8 2.3 0.2
v 2.7 2.4 0.2
v 2.8 2.4 0.2
v 2.7 2.4 0.1
v 2.8 2.4 0.1
v 2.7 2.5 0.3
v 2.8 2.5 0.3
v 2.7 2.5 0.2
v 2.8 2.5 0.2
v 2.7 2.6 0.2
v 2.8 2.6 0.2
v 2.7 2.6 0.1
v 2.8 2.6 0.1
v 2.7 2.6 -0.2
v 2.8 2.6 -0.2
v 2.7 2.6 -0.3
v 2.8 2.6 -0.3
v 2.7 2.7 -0.1
v 2.8 2.7 -0.1
v 2.7 2.7 -0.2
v 2.8 2.7 -0.2
v 2.7 0.5 -0.2
v 2.8 0.5 -0.2
v 2.7 0.5 -0.3
v 2.8 0.5 -0.3
v 2.7 0.6 -0.1
v 2.8 0.6 -0.1
v 2.7 0.6 -0.2
v 2.8 0.6 -0.2
v 2.7 0.8 0.3
v 2.8 0.8 0.3
v 2.7 0.8 0.2
v 2.8 0.8 0.2
v 2.7 0.9 0.2
v 2.8 0.9 0.2
v 2.7 0.9 0.1
v 2.8 0.9 0.1
v 2.7 1.1 -0.2
v 2.8 1.1 -0.2
v 2.7 1.1 -0.3
v 2.8 1.1 -0.3
v 2.7 1.2 -0.1
v 2.8 1.2 -0.1
v 2.7 1.2 -0.2
v 2.8 1.2 -0.2
v 2.7 1.3 0.3
v 2.8 1.3 0.3
v 2.7 1.3 0.2
v 2.8 1.3 0.2
v 2.7 1.4 0.2
v 2.8 1.4 0.2
v 2.7 1.4 0.1
v 2.8 1.4 0.1
v 2.7 1.5 -0.2
v 2.8 1.5 -0.2
v 2.7 1.5 -0.3
v 2.8 1.5 -0.3
v 2.7 1.6 -0.1
v 2.8 1.6 -0.1
v 2.7 1.6 -0.2
v 2.8 1.6 -0.2
v 2.7 1.8 -0.2
v 2.8 1.8 -0.2
v 2.7 1.8 -0.3
v 2.8 1.8 -0.3
v 2.7 1.9 0.3
v 2.8 1.9 0.3
v 2.7 1.9 0.2
v 2.8 1.9 0.2
v 2.7 1.9 -0.1
v 2.8 1.9 -0.1
v 2.7 1.9 -0.2
v 2.8 1.9 -0.2
v 2.7 2 0.2
v 2.8 2 0.2
v 2.7 2 0.1
v 2.8 2 0.1
v 2.7 2.2 -0.2
v 2.8 2.2 -0.2
v 2.7 2.2 -0.3
v 2.8 2.2 -0.3
v 2.7 2.3 -0.1
v 2.8 2.3 -0.1
v 2.7 2.3 -0.2
v 2.8 2.3 -0.2
v 2.7 2.4 0.3
v 2.8 2.4 0.3
v 2.7 2.4 0.2
v 2.8 2.4 0.2
v 2.7 2.5 0.2
v 2.8 2.5 0.2
v 2.7 2.5 0.1
v 2.8 2.5 0.1
v 2.7 2.6 0.3
v 2.8 2.6 0.3
v 2.7 2.6 0.2
v 2.8 2.6 0.2
v 2.7 2.7 0.2
v 2.8 2.7 0.2
v 2.7 2.7 0.1
v 2.8 2.7 0.1
v 2.7 2.7 -0.2
v 2.8 2.7 -0.2
v 2.7 2.7 -0.3
v 2.8 2.7 -0.3
v 2.7 2.8 -0.1
v 2.8 2.8 -0.1
v 2.7 2.8 -0.2
v 2.8 2.8 -0.2
v 2.7 2.9 0.1
v 2.8 2.9 0.1
v 2.7 2.9 -2.98023e-08
v 2.8 2.9 -2.98023e-08
v 2.7 2.9 -0.1
v 2.8 2.9 -0.1

# faces
f 3/1/1 2/1/1 1/1/1
f 4/1/1 2/1/1 3/1/1
f 5/1/1 3/1/1 1/1/1
f 5/2/1 4/2/1 3/2/1
f 6/2/1 4/2/1 5/2/1
f 7/1/1 5/1/1 1/1/1
f 7/1/1 6/1/1 5/1/1
f 8/1/1 6/1/1 7/1/1
f 9/2/1 8/2/1 7/2/1
f 10/1/1 6/1/1 8/1/1
f 10/2/1 8/2/1 9/2/1
f 13/1/1 6/1/1 10/1/1
f 13/1/1 10/1/1 9/1/1
f 14/1/1 6/1/1 13/1/1
f 15/2/1 12/2/1 11/2/1
f 16/2/1 12/2/1 15/2/1
f 17/2/1 14/2/1 13/2/1
f 17/2/1 15/2/1 14/2/1
f 18/2/1 15/2/1 17/2/1
f 21/1/1 13/1/1 9/1/1
f 21/2/1 17/2/1 13/2/1
f 22/2/1 17/2/1 21/2/1
f 23/2/1 20/2/1 19/2/1
f 24/2/1 20/2/1 23/2/1
f 25/1/1 21/1/1 9/1/1
f 25/1/1 22/1/1 21/1/1
f 26/1/1 22/1/1 25/1/1
f 27/2/1 25/2/1 24/2/1
f 27/2/1 26/2/1 25/2/1
f 28/2/1 26/2/1 27/2/1
f 29/1/1 22/1/1 26/1/1
f 29/2/1 26/2/1 28/2/1
f 32/1/1 22/1/1 29/1/1
f 32/1/1 29/1/1 28/1/1
f 33/1/1 22/1/1 32/1/1
f 34/2/1 31/2/1 30/2/1
f 35/2/1 31/2/1 34/2/1
f 38/2/1 33/2/1 32/2/1
f 38/1/1 32/1/1 28/1/1
f 38/2/1 34/2/1 33/2/1
f 39/2/1 34/2/1 38/2/1
f 40/2/1 34/2/1 39/2/1
f 41/2/1 37/2/1 36/2/1
f 42/2/1 37/2/1 41/2/1
f 43/1/1 38/1/1 28/1/1
f 43/1/1 39/1/1 38/1/1
f 44/1/1 39/1/1 43/1/1
f 45/2/1 43/2/1 42/2/1
f 45/2/1 44/2/1 43/2/1
f 46/2/1 44/2/1 45/2/1
f 47/1/1 39/1/1 44/1/1
f 47/2/1 44/2/1 46/2/1
f 50/1/1 39/1/1 47/1/1
f 50/1/1 47/1/1 46/1/1
f 51/1/1 39/1/1 50/1/1
f 52/2/1 49/2/1 48/2/1
f 53/2/1 49/2/1 52/2/1
f 54/2/1 51/2/1 50/2/1
f 54/1/1 50/1/1 46/1/1
f 54/2/1 52/2/1 51/2/1
f 55/2/1 52/2/1 54/2/1
f 56/2/1 52/2/1 55/2/1
f 61/1/1 54/1/1 46/1/1
f 61/1/1 55/1/1 54/1/1
f 62/1/1 55/1/1 61/1/1
f 63/2/1 58/2/1 57/2/1
f 64/2/1 58/2/1 63/2/1
f 65/2/1 60/2/1 59/2/1
f 66/2/1 60/2/1 65/2/1
f 67/1/1 61/1/1 46/1/1
f 68/2/1 62/2/1 61/2/1
f 68/2/1 63/2/1 62/2/1
f 68/1/1 61/1/1 67/1/1
f 69/2/1 63/2/1 68/2/1
f 70/2/1 63/2/1 69/2/1
f 71/2/1 67/2/1 66/2/1
f 71/2/1 68/2/1 67/2/1
f 72/2/1 68/2/1 71/2/1
f 73/1/1 69/1/1 68/1/1
f 73/2/1 68/2/1 72/2/1
f 76/1/1 73/1/1 72/1/1
f 76/1/1 69/1/1 73/1/1
f 77/1/1 69/1/1 76/1/1
f 78/2/1 75/2/1 74/2/1
f 79/2/1 75/2/1 78/2/1
f 82/2/1 77/2/1 76/2/1
f 82/2/1 78/2/1 77/2/1
f 83/2/1 78/2/1 82/2/1
f 84/2/1 81/2/1 80/2/1
f 85/2/1 81/2/1 84/2/1
f 86/1/1 76/1/1 72/1/1
f 87/2/1 82/2/1 76/2/1
f 87/1/1 76/1/1 86/1/1
f 88/2/1 82/2/1 87/2/1
f 90/2/1 86/2/1 85/2/1
f 90/2/1 87/2/1 86/2/1
f 91/2/1 87/2/1 90/2/1
f 92/1/1 88/1/1 87/1/1
f 92/2/1 87/2/1 91/2/1
f 93/2/1 90/2/1 89/2/1
f 94/2/1 90/2/1 93/2/1
f 95/1/1 92/1/1 91/1/1
f 96/1/1 88/1/1 92/1/1
f 96/1/1 92/1/1 95/1/1
f 99/2/1 96/2/1 95/2/1
f 99/2/1 95/2/1 94/2/1
f 100/2/1 96/2/1 99/2/1
f 101/1/1 88/1/1 96/1/1
f 101/2/1 96/2/1 100/2/1
f 102/1/1 88/1/1 101/1/1
f 103/2/1 98/2/1 97/2/1
f 104/2/1 98/2/1 103/2/1
f 105/1/1 101/1/1 100/1/1
f 106/2/1 102/2/1 101/2/1
f 106/1/1 101/1/1 105/1/1
f 106/2/1 103/2/1 102/2/1
f 107/2/1 103/2/1 106/2/1
f 108/2/1 103/2/1 107/2/1
f 109/2/1 106/2/1 105/2/1
f 110/1/1 107/1/1 106/1/1
f 110/2/1 106/2/1 109/2/1
f 111/1/1 107/1/1 110/1/1
f 112/1/2 113/1/2 114/1/2
f 114/1/2 113/1/2 115/1/2
f 112/1/2 114/1/2 116/1/2
f 114/2/2 115/2/2 116/2/2
f 116/2/2 115/2/2 117/2/2
f 112/1/2 116/1/2 118/1/2
f 116/1/2 117/1/2 118/1/2
f 118/1/2 117/1/2 119/1/2
f 118/2/2 119/2/2 120/2/2
f 119/1/2 117/1/2 121/1/2
f 120/2/2 119/2/2 121/2/2
f 121/1/2 117/1/2 124/1/2
f 120/1/2 121/1/2 124/1/2
f 124/1/2 117/1/2 125/1/2
f 122/2/2 123/2/2 126/2/2
f 126/2/2 123/2/2 127/2/2
f 124/2/2 125/2/2 128/2/2
f 125/2/2 126/2/2 128/2/2
f 128/2/2 126/2/2 129/2/2
f 120/1/2 124/1/2 132/1/2
f 124/2/2 128/2/2 132/2/2
f 132/2/2 128/2/2 133/2/2
f 130/2/2 131/2/2 134/2/2
f 134/2/2 131/2/2 135/2/2
f 120/1/2 132/1/2 136/1/2
f 132/1/2 133/1/2 136/1/2
f 136/1/2 133/1/2 137/1/2
f 135/2/2 136/2/2 138/2/2
f 136/2/2 137/2/2 138/2/2
f 138/2/2 137/2/2 139/2/2
f 137/1/2 133/1/2 140/1/2
f 139/2/2 137/2/2 140/2/2
f 140/1/2 133/1/2 143/1/2
f 139/1/2 140/1/2 143/1/2
f 143/1/2 133/1/2 144/1/2
f 141/2/2 142/2/2 145/2/2
f 145/2/2 142/2/2 146/2/2
f 143/2/2 144/2/2 149/2/2
f 139/1/2 143/1/2 149/1/2
f 144/2/2 145/2/2 149/2/2
f 149/2/2 145/2/2 150/2/2
f 150/2/2 145/2/2 151/2/2
f 147/2/2 148/2/2 152/2/2
f 152/2/2 148/2/2 153/2/2
f 139/1/2 149/1/2 154/1/2
f 149/1/2 150/1/2 154/1/2
f 154/1/2 150/1/2 155/1/2
f 153/2/2 154/2/2 156/2/2
f 154/2/2 155/2/2 156/2/2
f 156/2/2 155/2/2 157/2/2
f 155/1/2 150/1/2 158/1/2
f 157/2/2 155/2/2 158/2/2
f 158/1/2 150/1/2 161/1/2
f 157/1/2 158/1/2 161/1/2
f 161/1/2 150/1/2 162/1/2
f 159/2/2 160/2/2 163/2/2
f 163/2/2 160/2/2 164/2/2
f 161/2/2 162/2/2 165/2/2
f 157/1/2 161/1/2 165/1/2
f 162/2/2 163/2/2 165/2/2
f 165/2/2 163/2/2 166/2/2
f 166/2/2 163/2/2 167/2/2
f 157/1/2 165/1/2 172/1/2
f 165/1/2 166/1/2 172/1/2
f 172/1/2 166/1/2 173/1/2
f 168/2/2 169/2/2 174/2/2
f 174/2/2 169/2/2 175/2/2
f 170/2/2 171/2/2 176/2/2
f 176/2/2 171/2/2 177/2/2
f 157/1/2 172/1/2 178/1/2
f 172/2/2 173/2/2 179/2/2
f 173/2/2 174/2/2 179/2/2
f 178/1/2 172/1/2 179/1/2
f 179/2/2 174/2/2 180/2/2
f 180/2/2 174/2/2 181/2/2
f 177/2/2 178/2/2 182/2/2
f 178/2/2 179/2/2 182/2/2
f 182/2/2 179/2/2 183/2/2
f 179/1/2 180/1/2 184/1/2
f 183/2/2 179/2/2 184/2/2
f 183/1/2 184/1/2 187/1/2
f 184/1/2 180/1/2 187/1/2
f 187/1/2 180/1/2 188/1/2
f 185/2/2 186/2/2 189/2/2
f 189/2/2 186/2/2 190/2/2
f 187/2/2 188/2/2 193/2/2
f 188/2/2 189/2/2 193/2/2
f 193/2/2 189/2/2 194/2/2
f 191/2/2 192/2/2 195/2/2
f 195/2/2 192/2/2 196/2/2
f 183/1/2 187/1/2 197/1/2
f 187/2/2 193/2/2 198/2/2
f 197/1/2 187/1/2 198/1/2
f 198/2/2 193/2/2 199/2/2
f 196/2/2 197/2/2 201/2/2
f 197/2/2 198/2/2 201/2/2
f 201/2/2 198/2/2 202/2/2
f 198/1/2 199/1/2 203/1/2
f 202/2/2 198/2/2 203/2/2
f 200/2/2 201/2/2 204/2/2
f 204/2/2 201/2/2 205/2/2
f 202/1/2 203/1/2 206/1/2
f 203/1/2 199/1/2 207/1/2
f 206/1/2 203/1/2 207/1/2
f 206/2/2 207/2/2 210/2/2
f 205/2/2 206/2/2 210/2/2
f 210/2/2 207/2/2 211/2/2
f 207/1/2 199/1/2 212/1/2
f 211/2/2 207/2/2 212/2/2
f 212/1/2 199/1/2 213/1/2
f 208/2/2 209/2/2 214/2/2
f 214/2/2 209/2/2 215/2/2
f 211/1/2 212/1/2 216/1/2
f 212/2/2 213/2/2 217/2/2
f 216/1/2 212/1/2 217/1/2
f 213/2/2 214/2/2 217/2/2
f 217/2/2 214/2/2 218/2/2
f 218/2/2 214/2/2 219/2/2
f 216/2/2 217/2/2 220/2/2
f 217/1/2 218/1/2 221/1/2
f 220/2/2 217/2/2 221/2/2
f 221/1/2 218/1/2 222/1/2
f 233/2/3 224/2/3 223/2/3
f 234/2/3 224/2/3 233/2/3
f 235/2/3 226/2/3 225/2/3
f 236/2/3 226/2/3 235/2/3
f 237/2/3 228/2/3 227/2/3
f 238/2/3 228/2/3 237/2/3
f 239/2/3 230/2/3 229/2/3
f 240/2/3 230/2/3 239/2/3
f 241/2/3 232/2/3 231/2/3
f 242/2/3 232/2/3 241/2/3
f 253/2/3 244/2/3 243/2/3
f 254/2/3 244/2/3 253/2/3
f 255/2/3 246/2/3 245/2/3
f 256/2/3 246/2/3 255/2/3
f 257/2/3 248/2/3 247/2/3
f 258/2/3 248/2/3 257/2/3
f 259/2/3 250/2/3 249/2/3
f 260/2/3 250/2/3 259/2/3
f 261/2/3 252/2/3 251/2/3
f 262/2/3 252/2/3 261/2/3
f 278/1/3 264/1/3 263/1/3
f 279/2/3 265/2/3 264/2/3
f 279/1/3 264/1/3 278/1/3
f 280/1/3 266/1/3 265/1/3
f 280/2/3 265/2/3 279/2/3
f 281/1/3 266/1/3 280/1/3
f 282/1/3 268/1/3 267/1/3
f 283/1/3 268/1/3 282/1/3
f 284/1/3 270/1/3 269/1/3
f 285/1/3 270/1/3 284/1/3
f 286/1/3 272/1/3 271/1/3
f 287/1/3 272/1/3 286/1/3
f 288/1/3 274/1/3 273/1/3
f 289/1/3 274/1/3 288/1/3
f 290/1/3 276/1/3 275/1/3
f 291/2/3 277/2/3 276/2/3
f 291/1/3 276/1/3 290/1/3
f 292/2/3 277/2/3 291/2/3
f 305/2/3 294/2/3 293/2/3
f 306/2/3 294/2/3 305/2/3
f 307/2/3 296/2/3 295/2/3
f 308/2/3 296/2/3 307/2/3
f 309/2/3 298/2/3 297/2/3
f 310/2/3 298/2/3 309/2/3
f 311/2/3 300/2/3 299/2/3
f 312/2/3 300/2/3 311/2/3
f 313/2/3 302/2/3 301/2/3
f 314/2/3 302/2/3 313/2/3
f 315/2/3 304/2/3 303/2/3
f 316/2/3 304/2/3 315/2/3
f 317/2/4 318/2/4 327/2/4
f 327/2/4 318/2/4 328/2/4
f 319/2/4 320/2/4 329/2/4
f 329/2/4 320/2/4 330/2/4
f 321/2/4 322/2/4 331/2/4
f 331/2/4 322/2/4 332/2/4
f 323/2/4 324/2/4 333/2/4
f 333/2/4 324/2/4 334/2/4
f 325/2/4 326/2/4 335/2/4
f 335/2/4 326/2/4 336/2/4
f 337/1/4 338/1/4 355/1/4
f 338/2/4 339/2/4 356/2/4
f 355/1/4 338/1/4 356/1/4
f 339/1/4 340/1/4 357/1/4
f 356/2/4 339/2/4 357/2/4
f 357/1/4 340/1/4 358/1/4
f 341/2/4 342/2/4 359/2/4
f 342/1/4 343/1/4 360/1/4
f 359/2/4 342/2/4 360/2/4
f 360/1/4 343/1/4 361/1/4
f 344/1/4 345/1/4 362/1/4
f 362/1/4 345/1/4 363/1/4
f 346/1/4 347/1/4 364/1/4
f 364/1/4 347/1/4 365/1/4
f 348/1/4 349/1/4 366/1/4
f 366/1/4 349/1/4 367/1/4
f 350/2/4 351/2/4 368/2/4
f 351/1/4 352/1/4 369/1/4
f 368/2/4 351/2/4 369/2/4
f 369/1/4 352/1/4 370/1/4
f 353/1/4 354/1/4 371/1/4
f 371/1/4 354/1/4 372/1/4
f 373/2/4 374/2/4 385/2/4
f 385/2/4 374/2/4 386/2/4
f 375/2/4 376/2/4 387/2/4
f 387/2/4 376/2/4 388/2/4
f 377/2/4 378/2/4 389/2/4
f 389/2/4 378/2/4 390/2/4
f 379/2/4 380/2/4 391/2/4
f 391/2/4 380/2/4 392/2/4
f 381/2/4 382/2/4 393/2/4
f 393/2/4 382/2/4 394/2/4
f 383/2/4 384/2/4 395/2/4
f 395/2/4 384/2/4 396/2/4
f 397/2/4 398/2/4 409/2/4
f 409/2/4 398/2/4 410/2/4
f 399/2/4 400/2/4 411/2/4
f 411/2/4 400/2/4 412/2/4
f 401/2/4 402/2/4 413/2/4
f 413/2/4 402/2/4 414/2/4
f 403/2/4 404/2/4 415/2/4
f 415/2/4 404/2/4 416/2/4
f 405/2/4 406/2/4 417/2/4
f 417/2/4 406/2/4 418/2/4
f 407/2/4 408/2/4 419/2/4
f 419/2/4 408/2/4 420/2/4
f 423/1/5 422/1/5 421/1/5
f 424/1/5 422/1/5 423/1/5
f 427/2/5 426/2/5 425/2/5
f 428/2/5 426/2/5 427/2/5
f 431/2/5 430/2/5 429/2/5
f 432/2/5 430/2/5 431/2/5
f 435/2/5 434/2/5 433/2/5
f 436/2/5 434/2/5 435/2/5
f 439/2/5 438/2/5 437/2/5
f 440/2/5 438/2/5 439/2/5
f 443/2/5 442/2/5 441/2/5
f 444/2/5 442/2/5 443/2/5
f 447/2/5 446/2/5 445/2/5
f 448/2/5 446/2/5 447/2/5
f 451/2/5 450/2/5 449/2/5
f 452/2/5 450/2/5 451/2/5
f 455/2/5 454/2/5 453/2/5
f 456/2/5 454/2/5 455/2/5
f 459/2/5 458/2/5 457/2/5
f 460/2/5 458/2/5 459/2/5
f 463/2/5 462/2/5 461/2/5
f 464/2/5 462/2/5 463/2/5
f 467/2/5 466/2/5 465/2/5
f 468/2/5 466/2/5 467/2/5
f 471/2/5 470/2/5 469/2/5
f 472/2/5 470/2/5 471/2/5
f 475/2/5 474/2/5 473/2/5
f 476/2/5 474/2/5 475/2/5
f 479/2/5 478/2/5 477/2/5
f 480/2/5 478/2/5 479/2/5
f 483/2/5 482/2/5 481/2/5
f 484/2/5 482/2/5 483/2/5
f 487/2/5 486/2/5 485/2/5
f 488/2/5 486/2/5 487/2/5
f 491/2/5 490/2/5 489/2/5
f 492/2/5 490/2/5 491/2/5
f 495/2/5 494/2/5 493/2/5
f 496/2/5 494/2/5 495/2/5
f 499/2/5 498/2/5 497/2/5
f 500/2/5 498/2/5 499/2/5
f 503/2/5 502/2/5 501/2/5
f 504/2/5 502/2/5 503/2/5
f 507/2/5 506/2/5 505/2/5
f 508/2/5 506/2/5 507/2/5
f 511/2/5 510/2/5 509/2/5
f 512/2/5 510/2/5 511/2/5
f 513/2/6 514/2/6 515/2/6
f 515/2/6 514/2/6 516/2/6
f 517/2/6 518/2/6 519/2/6
f 519/2/6 518/2/6 520/2/6
f 521/2/6 522/2/6 523/2/6
f 523/2/6 522/2/6 524/2/6
f 525/2/6 526/2/6 527/2/6
f 527/2/6 526/2/6 528/2/6
f 529/2/6 530/2/6 531/2/6
f 531/2/6 530/2/6 532/2/6
f 533/2/6 534/2/6 535/2/6
f 535/2/6 534/2/6 536/2/6
f 537/2/6 538/2/6 539/2/6
f 539/2/6 538/2/6 540/2/6
f 541/2/6 542/2/6 543/2/6
f 543/2/6 542/2/6 544/2/6
f 545/2/6 546/2/6 547/2/6
f 547/2/6 546/2/6 548/2/6
f 549/2/6 550/2/6 551/2/6
f 551/2/6 550/2/6 552/2/6
f 553/2/6 554/2/6 555/2/6
f 555/2/6 554/2/6 556/2/6
f 557/2/6 558/2/6 559/2/6
f 559/2/6 558/2/6 560/2/6
f 561/2/6 562/2/6 563/2/6
f 563/2/6 562/2/6 564/2/6
f 565/2/6 566/2/6 567/2/6
f 567/2/6 566/2/6 568/2/6
f 569/2/6 570/2/6 571/2/6
f 571/2/6 570/2/6 572/2/6
f 573/2/6 574/2/6 575/2/6
f 575/2/6 574/2/6 576/2/6
f 577/2/6 578/2/6 579/2/6
f 579/2/6 578/2/6 580/2/6
f 581/2/6 582/2/6 583/2/6
f 583/2/6 582/2/6 584/2/6
f 585/2/6 586/2/6 587/2/6
f 587/2/6 586/2/6 588/2/6
f 589/2/6 590/2/6 591/2/6
f 591/2/6 590/2/6 592/2/6
f 593/2/6 594/2/6 595/2/6
f 595/2/6 594/2/6 596/2/6
f 597/2/6 598/2/6 599/2/6
f 599/2/6 598/2/6 600/2/6
f 601/2/6 602/2/6 603/2/6
f 603/2/6 602/2/6 604/2/6
f 603/1/6 604/1/6 605/1/6
f 605/1/6 604/1/6 606/1/6
