# MagicaVoxel @ Ephtracy

# group
o 

# material
mtllib Walls-1.mtl
usemtl palette

# normals
vn -1 0 0
vn 1 0 0
vn 0 0 1
vn 0 0 -1
vn 0 -1 0
vn 0 1 0

# texcoords
vt 0.564453 0.5
vt 0.568359 0.5
vt 0.572266 0.5
vt 0.576172 0.5
vt 0.580078 0.5
vt 0.966797 0.5

# verts
v 2.7 1.7 2.1
v 2.7 1.7 -1.9
v 2.7 2.1 2.1
v 2.7 2.1 -1.9
v 6.2 1.7 2.1
v 6.2 1.7 -1.9
v 6.2 2.1 2.1
v 6.2 2.1 -1.9
v 2.7 1.7 2.1
v 2.7 2.1 2.1
v 2.9 2 2.1
v 2.9 2.1 2.1
v 3.1 2 2.1
v 3.1 2.1 2.1
v 3.6 2 2.1
v 3.6 2.1 2.1
v 3.8 2 2.1
v 3.8 2.1 2.1
v 4.3 2 2.1
v 4.3 2.1 2.1
v 4.5 2 2.1
v 4.5 2.1 2.1
v 5 2 2.1
v 5 2.1 2.1
v 5.2 2 2.1
v 5.2 2.1 2.1
v 5.7 2 2.1
v 5.7 2.1 2.1
v 5.9 2 2.1
v 5.9 2.1 2.1
v 6.2 1.7 2.1
v 6.2 2.1 2.1
v 2.7 1.7 -1.9
v 2.7 2.1 -1.9
v 2.9 2 -1.9
v 2.9 2.1 -1.9
v 3.1 2 -1.9
v 3.1 2.1 -1.9
v 3.6 2 -1.9
v 3.6 2.1 -1.9
v 3.8 2 -1.9
v 3.8 2.1 -1.9
v 4.3 2 -1.9
v 4.3 2.1 -1.9
v 4.5 2 -1.9
v 4.5 2.1 -1.9
v 5 2 -1.9
v 5 2.1 -1.9
v 5.2 2 -1.9
v 5.2 2.1 -1.9
v 5.7 2 -1.9
v 5.7 2.1 -1.9
v 5.9 2 -1.9
v 5.9 2.1 -1.9
v 6.2 1.7 -1.9
v 6.2 2.1 -1.9
v 2.7 1.7 2.1
v 6.2 1.7 2.1
v 2.7 1.7 -1.9
v 6.2 1.7 -1.9
v 2.7 2.1 2.1
v 2.9 2.1 2.1
v 3.1 2.1 2.1
v 3.6 2.1 2.1
v 3.8 2.1 2.1
v 4.3 2.1 2.1
v 4.5 2.1 2.1
v 5 2.1 2.1
v 5.2 2.1 2.1
v 5.7 2.1 2.1
v 5.9 2.1 2.1
v 6.2 2.1 2.1
v 2.7 2.1 -1.9
v 2.9 2.1 -1.9
v 3.1 2.1 -1.9
v 3.6 2.1 -1.9
v 3.8 2.1 -1.9
v 4.3 2.1 -1.9
v 4.5 2.1 -1.9
v 5 2.1 -1.9
v 5.2 2.1 -1.9
v 5.7 2.1 -1.9
v 5.9 2.1 -1.9
v 6.2 2.1 -1.9

# faces
f 3/6/1 2/6/1 1/6/1
f 4/6/1 2/6/1 3/6/1
f 5/6/2 6/6/2 7/6/2
f 7/6/2 6/6/2 8/6/2
f 11/6/3 10/6/3 9/6/3
f 12/6/3 10/6/3 11/6/3
f 13/6/3 11/6/3 9/6/3
f 13/1/3 12/1/3 11/1/3
f 14/1/3 12/1/3 13/1/3
f 15/6/3 13/6/3 9/6/3
f 15/6/3 14/6/3 13/6/3
f 16/6/3 14/6/3 15/6/3
f 17/6/3 15/6/3 9/6/3
f 17/2/3 16/2/3 15/2/3
f 18/2/3 16/2/3 17/2/3
f 19/6/3 17/6/3 9/6/3
f 19/6/3 18/6/3 17/6/3
f 20/6/3 18/6/3 19/6/3
f 21/6/3 19/6/3 9/6/3
f 21/3/3 20/3/3 19/3/3
f 22/3/3 20/3/3 21/3/3
f 23/6/3 21/6/3 9/6/3
f 23/6/3 22/6/3 21/6/3
f 24/6/3 22/6/3 23/6/3
f 25/6/3 23/6/3 9/6/3
f 25/4/3 24/4/3 23/4/3
f 26/4/3 24/4/3 25/4/3
f 27/6/3 25/6/3 9/6/3
f 27/6/3 26/6/3 25/6/3
f 28/6/3 26/6/3 27/6/3
f 29/6/3 27/6/3 9/6/3
f 29/5/3 28/5/3 27/5/3
f 30/5/3 28/5/3 29/5/3
f 31/6/3 29/6/3 9/6/3
f 31/6/3 30/6/3 29/6/3
f 32/6/3 30/6/3 31/6/3
f 33/6/4 34/6/4 35/6/4
f 35/6/4 34/6/4 36/6/4
f 33/6/4 35/6/4 37/6/4
f 35/1/4 36/1/4 37/1/4
f 37/1/4 36/1/4 38/1/4
f 33/6/4 37/6/4 39/6/4
f 37/6/4 38/6/4 39/6/4
f 39/6/4 38/6/4 40/6/4
f 33/6/4 39/6/4 41/6/4
f 39/2/4 40/2/4 41/2/4
f 41/2/4 40/2/4 42/2/4
f 33/6/4 41/6/4 43/6/4
f 41/6/4 42/6/4 43/6/4
f 43/6/4 42/6/4 44/6/4
f 33/6/4 43/6/4 45/6/4
f 43/3/4 44/3/4 45/3/4
f 45/3/4 44/3/4 46/3/4
f 33/6/4 45/6/4 47/6/4
f 45/6/4 46/6/4 47/6/4
f 47/6/4 46/6/4 48/6/4
f 33/6/4 47/6/4 49/6/4
f 47/4/4 48/4/4 49/4/4
f 49/4/4 48/4/4 50/4/4
f 33/6/4 49/6/4 51/6/4
f 49/6/4 50/6/4 51/6/4
f 51/6/4 50/6/4 52/6/4
f 33/6/4 51/6/4 53/6/4
f 51/5/4 52/5/4 53/5/4
f 53/5/4 52/5/4 54/5/4
f 33/6/4 53/6/4 55/6/4
f 53/6/4 54/6/4 55/6/4
f 55/6/4 54/6/4 56/6/4
f 59/6/5 58/6/5 57/6/5
f 60/6/5 58/6/5 59/6/5
f 61/6/6 62/6/6 73/6/6
f 62/1/6 63/1/6 74/1/6
f 73/6/6 62/6/6 74/6/6
f 63/6/6 64/6/6 75/6/6
f 74/1/6 63/1/6 75/1/6
f 64/2/6 65/2/6 76/2/6
f 75/6/6 64/6/6 76/6/6
f 65/6/6 66/6/6 77/6/6
f 76/2/6 65/2/6 77/2/6
f 66/3/6 67/3/6 78/3/6
f 77/6/6 66/6/6 78/6/6
f 67/6/6 68/6/6 79/6/6
f 78/3/6 67/3/6 79/3/6
f 68/4/6 69/4/6 80/4/6
f 79/6/6 68/6/6 80/6/6
f 69/6/6 70/6/6 81/6/6
f 80/4/6 69/4/6 81/4/6
f 70/5/6 71/5/6 82/5/6
f 81/6/6 70/6/6 82/6/6
f 71/6/6 72/6/6 83/6/6
f 82/5/6 71/5/6 83/5/6
f 83/6/6 72/6/6 84/6/6
